<?xml version="1.0" encoding="UTF-8" standalone="no"?>
<!DOCTYPE svg PUBLIC "-//W3C//DTD SVG 20010904//EN"
              "http://www.w3.org/TR/2001/REC-SVG-20010904/DTD/svg10.dtd">

<svg xmlns="http://www.w3.org/2000/svg"
     width="9.375in" height="13.1562in"
     viewBox="0 0 900 1263">
  <path id="Selection"
        fill="none" stroke="black" stroke-width="1"
        d="M 432.32,260.91
           C 432.32,260.91 417.96,242.00 417.96,242.00
             417.96,242.00 401.00,226.72 401.00,226.72
             401.00,226.72 391.00,217.44 391.00,217.44
             381.62,209.53 353.77,190.23 343.00,184.31
             343.00,184.31 309.00,168.46 309.00,168.46
             309.00,168.46 295.00,163.81 295.00,163.81
             290.21,162.05 279.25,161.37 277.08,156.87
             275.50,153.60 278.26,151.19 281.02,150.01
             281.02,150.01 292.00,147.76 292.00,147.76
             292.00,147.76 303.00,144.15 303.00,144.15
             303.00,144.15 314.00,141.25 314.00,141.25
             314.00,141.25 324.00,137.67 324.00,137.67
             329.72,136.21 336.15,135.73 340.66,131.47
             345.71,126.71 344.50,122.01 345.44,116.00
             345.44,116.00 347.52,103.00 347.52,103.00
             347.52,103.00 349.68,95.00 349.68,95.00
             349.68,95.00 351.17,78.00 351.17,78.00
             351.17,78.00 354.88,59.02 354.88,59.02
             356.15,56.01 358.52,53.60 361.99,55.08
             364.53,56.17 368.11,60.81 370.05,63.00
             370.05,63.00 380.32,76.00 380.32,76.00
             380.32,76.00 389.25,86.00 389.25,86.00
             408.35,108.80 424.08,132.43 437.37,159.00
             443.50,171.26 449.91,183.52 452.99,197.00
             452.99,197.00 459.08,218.00 459.08,218.00
             459.08,218.00 460.53,227.00 460.53,227.00
             460.53,227.00 463.56,236.00 463.56,236.00
             463.56,236.00 467.77,253.00 467.77,253.00
             468.62,256.61 470.59,269.55 474.22,270.66
             477.51,271.67 480.91,267.00 480.26,264.02
             478.87,257.71 466.36,257.12 470.59,249.09
             474.89,240.93 481.94,246.09 487.98,243.39
             494.20,240.62 503.26,221.64 499.82,215.04
             497.01,209.66 490.93,209.44 488.28,215.04
             486.46,218.66 488.77,222.25 488.28,226.00
             487.34,234.99 476.85,235.21 473.75,232.26
             468.23,227.16 473.79,216.27 473.75,210.00
             473.84,205.80 472.06,201.41 473.75,197.00
             475.32,192.84 479.46,190.44 479.54,187.00
             479.64,182.74 469.81,175.72 476.31,169.43
             481.94,163.99 487.89,170.58 493.00,170.58
             498.00,170.58 499.24,166.62 509.00,167.04
             513.89,167.25 516.70,168.61 521.00,170.76
             535.03,177.78 537.17,186.45 537.00,201.00
             536.97,203.21 536.95,204.80 536.48,207.00
             534.93,214.29 531.77,216.55 531.00,225.00
             532.74,224.49 533.37,224.46 535.00,223.41
             537.47,221.80 550.78,207.09 553.42,204.00
             553.42,204.00 573.29,179.00 573.29,179.00
             573.29,179.00 581.70,170.00 581.70,170.00
             581.70,170.00 589.09,161.00 589.09,161.00
             589.09,161.00 601.58,148.00 601.58,148.00
             608.67,139.83 613.55,135.89 622.00,129.35
             624.51,127.41 628.73,123.60 631.94,123.42
             637.78,123.09 634.86,129.40 633.29,132.00
             633.29,132.00 622.21,149.00 622.21,149.00
             620.27,152.29 619.25,155.57 622.21,158.57
             624.76,160.96 631.47,161.75 635.00,162.63
             635.00,162.63 659.00,167.51 659.00,167.51
             659.00,167.51 668.00,170.10 668.00,170.10
             670.75,170.77 683.28,171.69 680.83,176.74
             679.01,180.50 670.49,179.88 667.00,180.04
             660.31,180.33 657.02,182.08 651.00,183.50
             651.00,183.50 633.00,187.46 633.00,187.46
             633.00,187.46 601.00,198.87 601.00,198.87
             578.14,208.58 563.10,217.64 543.00,232.04
             535.05,237.73 523.95,247.98 517.00,255.00
             511.99,260.07 508.89,265.65 502.00,268.00
             502.00,268.00 502.00,259.00 502.00,259.00
             499.51,260.89 490.25,267.71 492.82,271.41
             493.72,272.69 497.45,273.50 499.00,274.00
             498.37,276.68 494.18,285.56 495.81,287.01
             497.09,288.47 499.63,287.34 501.00,287.01
             501.00,287.01 515.00,280.75 515.00,280.75
             515.00,280.75 544.00,273.17 544.00,273.17
             552.34,272.27 568.37,270.85 574.96,265.58
             582.88,259.24 580.90,251.23 572.00,247.36
             567.86,245.57 562.49,245.95 558.00,246.00
             548.17,246.12 547.30,249.72 540.00,248.00
             543.92,239.79 554.98,235.24 563.00,231.72
             563.00,231.72 575.00,226.52 575.00,226.52
             579.59,225.00 581.52,225.24 586.00,224.57
             596.14,223.07 605.82,221.57 615.00,227.70
             621.76,232.21 624.83,237.57 627.33,245.00
             628.53,248.55 630.79,254.43 630.82,258.00
             630.84,260.82 629.59,265.16 628.87,268.00
             625.49,281.46 621.51,286.93 609.00,293.36
             600.90,297.52 601.34,297.99 592.00,298.00
             592.00,298.00 569.00,298.00 569.00,298.00
             555.87,297.98 547.18,292.16 534.00,292.00
             534.00,292.00 524.00,292.00 524.00,292.00
             516.83,292.01 510.62,292.91 504.00,295.88
             501.73,296.89 498.61,298.37 498.13,301.10
             497.68,303.68 501.64,310.73 503.13,313.00
             504.72,315.42 506.52,317.47 509.01,318.99
             513.51,321.74 518.95,320.72 524.00,321.61
             524.00,321.61 540.00,325.54 540.00,325.54
             540.00,325.54 558.00,328.16 558.00,328.16
             558.00,328.16 567.00,331.22 567.00,331.22
             567.00,331.22 579.00,333.77 579.00,333.77
             579.00,333.77 588.00,337.25 588.00,337.25
             588.00,337.25 600.00,340.70 600.00,340.70
             615.98,346.38 646.20,360.42 661.00,368.87
             695.01,388.28 733.79,418.84 759.83,448.00
             759.83,448.00 768.61,459.00 768.61,459.00
             768.61,459.00 790.72,488.00 790.72,488.00
             790.72,488.00 810.69,519.00 810.69,519.00
             822.07,539.41 832.46,561.84 839.90,584.00
             839.90,584.00 842.10,593.00 842.10,593.00
             842.10,593.00 845.45,601.00 845.45,601.00
             845.45,601.00 852.10,625.00 852.10,625.00
             852.10,625.00 853.88,637.00 853.88,637.00
             855.81,645.83 858.89,656.08 859.08,665.00
             859.08,665.00 859.08,675.00 859.08,675.00
             859.08,675.00 862.00,700.00 862.00,700.00
             862.00,700.00 862.00,730.00 862.00,730.00
             862.00,730.00 860.71,752.00 860.71,752.00
             860.71,752.00 859.08,761.00 859.08,761.00
             859.08,761.00 859.08,772.00 859.08,772.00
             858.87,782.94 854.73,790.12 853.30,800.00
             853.30,800.00 852.54,808.00 852.54,808.00
             852.54,808.00 848.04,824.00 848.04,824.00
             848.04,824.00 845.96,833.00 845.96,833.00
             845.96,833.00 836.06,860.00 836.06,860.00
             836.06,860.00 830.09,875.00 830.09,875.00
             830.09,875.00 827.53,883.00 827.53,883.00
             827.53,883.00 822.89,892.00 822.89,892.00
             815.04,908.55 814.21,910.28 804.42,926.00
             789.39,950.14 772.70,973.46 752.96,994.00
             752.96,994.00 740.00,1006.01 740.00,1006.01
             740.00,1006.01 724.00,1021.83 724.00,1021.83
             701.00,1042.37 666.69,1063.79 639.00,1077.63
             622.18,1086.03 603.88,1092.34 586.00,1098.03
             586.00,1098.03 577.00,1101.22 577.00,1101.22
             577.00,1101.22 568.00,1103.16 568.00,1103.16
             568.00,1103.16 556.00,1107.08 556.00,1107.08
             556.00,1107.08 534.00,1110.32 534.00,1110.32
             518.83,1112.98 525.22,1113.79 507.00,1114.00
             507.00,1114.00 487.00,1116.00 487.00,1116.00
             487.00,1116.00 448.00,1116.00 448.00,1116.00
             448.00,1116.00 430.00,1113.92 430.00,1113.92
             430.00,1113.92 419.00,1113.92 419.00,1113.92
             419.00,1113.92 393.00,1108.61 393.00,1108.61
             393.00,1108.61 384.00,1107.48 384.00,1107.48
             384.00,1107.48 373.00,1104.37 373.00,1104.37
             333.98,1094.49 301.39,1080.88 267.00,1059.81
             267.00,1059.81 257.00,1054.05 257.00,1054.05
             257.00,1054.05 215.00,1022.83 215.00,1022.83
             215.00,1022.83 202.00,1010.17 202.00,1010.17
             202.00,1010.17 188.09,997.96 188.09,997.96
             188.09,997.96 175.00,983.00 175.00,983.00
             175.00,983.00 163.52,970.00 163.52,970.00
             145.66,947.34 130.50,922.74 117.63,897.00
             117.63,897.00 108.51,879.00 108.51,879.00
             108.51,879.00 99.54,855.00 99.54,855.00
             99.54,855.00 96.10,847.00 96.10,847.00
             96.10,847.00 93.64,836.00 93.64,836.00
             93.64,836.00 89.79,826.00 89.79,826.00
             89.79,826.00 87.52,814.00 87.52,814.00
             87.52,814.00 83.81,801.00 83.81,801.00
             83.81,801.00 82.54,790.00 82.54,790.00
             80.14,776.37 77.02,770.34 77.00,755.00
             77.00,755.00 77.00,680.00 77.00,680.00
             77.02,665.71 80.14,657.27 82.54,644.00
             82.54,644.00 83.67,636.00 83.67,636.00
             83.67,636.00 88.48,617.00 88.48,617.00
             88.48,617.00 89.79,609.00 89.79,609.00
             89.79,609.00 93.25,600.00 93.25,600.00
             93.25,600.00 96.22,588.00 96.22,588.00
             96.22,588.00 108.04,557.00 108.04,557.00
             108.04,557.00 116.04,541.00 116.04,541.00
             116.04,541.00 127.46,518.00 127.46,518.00
             135.84,503.45 157.71,471.70 168.28,459.00
             187.85,435.51 220.71,405.49 246.00,388.02
             246.00,388.02 266.00,375.80 266.00,375.80
             290.02,361.30 304.26,353.46 331.00,344.24
             331.00,344.24 341.00,339.87 341.00,339.87
             341.00,339.87 359.00,333.76 359.00,333.76
             359.00,333.76 369.00,331.56 369.00,331.56
             369.00,331.56 380.00,327.90 380.00,327.90
             380.00,327.90 397.00,325.72 397.00,325.72
             405.61,323.93 414.11,321.11 423.00,321.00
             428.39,320.94 442.78,320.57 446.98,317.99
             449.63,316.37 451.05,314.56 452.68,312.00
             454.21,309.58 457.86,303.93 457.19,301.10
             456.56,298.42 453.29,296.89 451.00,295.88
             444.33,292.91 438.22,292.01 431.00,292.00
             431.00,292.00 423.00,292.00 423.00,292.00
             409.95,292.16 401.42,297.98 388.00,298.00
             388.00,298.00 367.00,298.00 367.00,298.00
             357.96,297.99 356.08,297.29 348.00,293.25
             329.45,283.97 323.05,269.00 326.41,249.00
             327.86,240.41 330.30,232.87 338.00,227.70
             347.10,221.59 358.97,223.18 369.00,224.73
             372.32,225.24 374.73,225.35 378.00,226.56
             378.00,226.56 388.00,231.29 388.00,231.29
             396.20,234.42 409.76,239.96 414.00,248.00
             405.85,250.11 407.86,245.94 393.00,246.00
             388.56,246.02 384.86,246.07 381.02,248.70
             373.29,253.98 373.92,262.32 382.02,266.86
             384.21,268.10 400.15,272.52 403.00,272.83
             407.88,273.35 409.29,272.53 415.00,273.90
             415.00,273.90 439.00,280.70 439.00,280.70
             446.03,283.20 450.24,286.30 458.00,287.00
             451.33,274.50 439.69,269.11 432.32,260.91 Z
           M 745.99,449.00
           C 739.68,442.53 733.48,435.48 725.00,431.88
             719.02,429.34 713.36,430.00 707.00,430.00
             689.42,430.00 688.08,429.06 671.00,435.55
             664.86,437.89 654.21,445.12 649.00,449.31
             646.93,450.97 643.32,454.97 640.43,453.18
             637.08,451.10 638.34,445.14 638.72,442.00
             638.72,442.00 638.00,414.00 638.00,414.00
             637.90,406.12 635.70,400.26 633.05,393.00
             627.82,378.66 620.54,362.96 607.00,354.56
             607.00,354.56 587.00,346.78 587.00,346.78
             587.00,346.78 580.00,345.22 580.00,345.22
             580.00,345.22 570.00,341.44 570.00,341.44
             570.00,341.44 560.00,339.49 560.00,339.49
             560.00,339.49 539.00,334.06 539.00,334.06
             539.00,334.06 530.00,334.06 530.00,334.06
             517.82,332.52 505.38,326.30 493.00,329.48
             485.92,331.29 479.42,334.74 473.00,338.11
             473.00,338.11 462.00,343.70 462.00,343.70
             447.59,352.98 435.04,370.33 430.76,387.00
             428.55,395.61 428.89,415.45 429.00,425.00
             429.26,446.49 443.44,468.36 462.00,478.83
             466.94,481.61 477.33,484.81 483.00,486.24
             488.54,487.63 492.68,486.65 498.00,484.97
             501.11,483.99 507.35,481.67 510.00,480.01
             519.13,474.31 528.89,462.12 529.81,451.00
             530.83,438.67 520.91,424.37 508.00,424.02
             500.15,423.80 495.03,425.26 489.46,431.18
             487.12,433.68 483.30,440.51 479.21,438.83
             477.02,437.93 475.27,434.04 474.25,432.00
             469.48,422.49 469.88,419.29 470.00,409.00
             470.10,401.22 471.60,399.83 474.58,393.00
             480.74,378.85 487.50,373.78 500.00,365.66
             504.15,362.96 508.30,360.21 513.00,358.55
             517.06,357.11 521.74,356.48 526.00,355.87
             529.44,355.38 532.49,354.52 536.00,354.78
             552.71,356.04 566.38,360.90 580.00,370.74
             593.39,380.42 604.02,394.85 608.24,411.00
             608.24,411.00 610.00,421.00 610.00,421.00
             611.34,427.62 612.91,431.00 613.00,438.00
             613.15,450.94 612.11,448.07 610.28,459.00
             610.28,459.00 608.32,472.00 608.32,472.00
             608.32,472.00 605.00,482.00 605.00,482.00
             600.69,494.81 600.00,497.76 593.00,510.00
             586.62,521.16 578.40,533.47 568.00,541.24
             547.45,556.59 531.01,555.28 507.00,555.00
             497.96,554.89 497.69,553.27 490.00,550.75
             490.00,550.75 480.00,547.91 480.00,547.91
             472.20,545.11 462.74,538.75 456.00,533.85
             443.20,524.55 439.83,519.35 429.83,508.00
             410.93,486.56 401.18,470.43 387.13,446.00
             387.13,446.00 374.23,424.00 374.23,424.00
             366.61,409.99 346.98,381.23 335.00,371.66
             330.80,368.31 323.26,361.43 318.00,361.15
             313.12,360.89 304.10,364.68 307.19,370.91
             307.19,370.91 320.70,384.00 320.70,384.00
             327.58,392.00 334.39,405.12 338.24,415.00
             340.96,421.98 339.51,425.23 340.17,432.00
             340.17,432.00 341.24,440.00 341.24,440.00
             342.57,462.50 324.16,485.65 304.00,493.79
             300.55,495.19 290.75,496.66 287.00,496.66
             282.71,496.66 273.88,495.23 270.00,493.45
             259.88,488.80 248.07,475.85 242.98,466.00
             237.73,455.84 236.44,443.64 248.00,437.02
             252.31,434.56 255.94,436.01 256.75,441.02
             256.75,441.02 256.75,448.98 256.75,448.98
             257.86,454.70 264.01,456.28 269.00,455.06
             281.48,452.00 286.86,440.97 287.00,429.00
             287.12,417.77 284.86,411.11 275.00,404.70
             272.36,402.98 269.10,401.06 266.00,400.34
             263.64,399.87 259.54,400.00 257.00,400.34
             254.40,400.00 251.51,399.89 249.00,400.34
             242.51,402.60 226.23,416.04 221.00,421.04
             217.77,424.13 212.67,428.89 211.01,433.00
             209.38,437.02 209.94,452.80 210.00,458.00
             210.15,470.49 218.92,484.59 226.62,494.00
             229.22,497.19 235.63,502.12 230.76,506.01
             225.48,510.22 207.15,512.03 200.00,514.55
             200.00,514.55 192.00,517.91 192.00,517.91
             168.54,526.35 164.93,529.02 144.00,541.94
             137.89,545.70 126.73,550.55 122.43,556.04
             120.12,558.99 118.98,564.24 117.22,568.00
             113.55,575.84 107.57,586.34 110.00,595.00
             117.13,589.10 117.21,585.19 122.33,579.00
             127.53,572.70 136.27,566.19 143.00,561.42
             154.94,552.98 165.80,547.36 179.00,541.33
             179.00,541.33 187.00,537.22 187.00,537.22
             187.00,537.22 196.00,534.47 196.00,534.47
             196.00,534.47 203.00,531.12 203.00,531.12
             203.00,531.12 214.00,527.91 214.00,527.91
             226.55,523.45 245.87,516.94 259.00,516.21
             259.00,516.21 272.00,517.91 272.00,517.91
             272.00,517.91 303.00,519.00 303.00,519.00
             307.16,518.99 316.16,518.31 320.00,517.21
             322.85,516.40 326.33,514.60 329.00,513.24
             343.96,505.65 352.17,495.99 359.22,481.00
             363.14,472.67 363.06,466.77 364.75,458.00
             365.29,455.26 365.95,450.78 369.95,452.46
             374.15,454.23 377.54,464.66 380.00,469.00
             388.49,483.97 395.79,497.75 407.13,511.00
             419.43,525.36 429.52,536.07 445.00,547.26
             461.27,559.01 473.81,561.69 487.49,580.00
             493.43,587.96 504.38,609.34 506.48,619.00
             508.49,628.21 508.04,639.53 508.00,649.00
             507.92,665.05 498.74,681.97 490.00,695.00
             479.54,710.59 460.76,726.76 441.00,727.00
             423.78,727.20 401.66,721.23 392.64,705.00
             385.30,691.79 385.71,686.35 391.58,673.00
             393.80,667.95 396.77,662.38 402.71,661.09
             408.06,659.92 412.76,664.83 412.85,670.00
             412.91,673.11 411.46,677.14 412.21,682.00
             413.47,690.08 419.92,695.76 428.00,695.98
             443.21,696.41 450.24,687.79 454.14,674.00
             455.25,670.08 456.26,667.17 455.81,663.00
             454.72,652.83 450.91,644.46 444.07,637.00
             435.75,627.92 430.43,625.02 418.00,625.00
             406.60,624.98 397.33,624.29 387.00,630.48
             376.22,636.93 367.22,648.61 364.52,661.00
             364.52,661.00 362.87,673.00 362.87,673.00
             361.93,679.57 360.74,681.87 361.04,689.00
             361.04,689.00 362.71,700.00 362.71,700.00
             363.40,705.09 363.63,713.48 365.53,718.00
             365.53,718.00 372.80,732.00 372.80,732.00
             377.18,738.26 390.14,750.35 397.00,753.95
             400.20,755.63 404.48,756.47 408.00,757.69
             416.22,760.56 417.84,761.96 427.00,762.00
             427.00,762.00 435.00,762.00 435.00,762.00
             449.19,761.83 471.96,754.27 484.00,746.93
             487.60,744.74 496.47,736.59 500.26,740.52
             502.58,742.93 501.84,748.76 502.17,752.00
             502.17,752.00 507.21,777.00 507.21,777.00
             509.96,789.66 519.37,804.04 519.12,816.00
             519.03,820.12 519.25,825.07 518.24,829.00
             513.73,846.61 494.31,866.21 475.00,864.68
             462.32,863.67 449.91,857.31 443.53,846.00
             441.97,843.24 440.28,838.18 440.36,835.00
             440.54,827.75 448.83,817.30 456.00,815.81
             458.43,815.30 462.52,815.67 462.52,819.02
             462.52,822.76 455.12,825.42 454.51,832.00
             453.54,842.49 469.48,853.26 482.00,847.00
             486.08,844.96 490.45,841.15 492.43,837.00
             494.14,833.43 493.99,829.84 494.00,826.00
             494.02,815.38 493.97,809.28 485.90,801.09
             476.93,792.00 467.84,791.87 456.00,792.00
             443.31,792.15 437.01,796.46 430.08,807.00
             428.14,809.94 425.87,813.66 424.78,817.00
             424.78,817.00 422.75,827.00 422.75,827.00
             422.13,830.56 421.02,834.41 421.33,838.00
             421.33,838.00 423.93,853.00 423.93,853.00
             427.01,864.31 438.53,875.36 449.00,880.10
             449.00,880.10 458.00,883.09 458.00,883.09
             462.60,884.73 464.83,886.49 470.00,886.91
             480.99,887.81 494.09,883.59 503.00,877.21
             506.20,874.93 508.19,872.67 511.00,870.09
             513.88,867.46 517.91,865.00 520.01,861.91
             520.01,861.91 529.08,843.00 529.08,843.00
             529.99,840.82 531.06,836.20 534.07,836.20
             537.12,836.20 541.83,843.61 543.63,846.00
             543.63,846.00 566.17,871.79 566.17,871.79
             569.64,875.05 578.56,879.67 583.00,882.17
             589.10,885.60 595.44,889.02 602.00,891.53
             602.00,891.53 629.00,898.85 629.00,898.85
             632.04,899.04 633.98,899.00 637.00,898.85
             637.00,898.85 670.00,898.85 670.00,898.85
             676.18,898.92 686.23,895.22 692.00,892.65
             702.35,888.04 710.21,878.90 720.00,873.34
             726.55,869.61 728.48,870.08 735.00,868.25
             747.51,864.74 750.02,863.02 764.00,863.00
             777.31,862.98 787.79,861.20 800.00,867.25
             803.80,869.13 810.64,873.72 814.57,870.40
             819.80,865.98 816.96,858.29 811.98,855.22
             807.03,852.16 788.00,849.10 782.00,849.51
             782.00,849.51 750.00,853.04 750.00,853.04
             746.39,854.10 739.56,858.30 736.66,855.39
             734.05,853.19 735.79,850.30 736.66,848.00
             740.22,841.13 743.02,837.57 744.87,830.00
             744.87,830.00 749.70,809.00 749.70,809.00
             749.70,809.00 750.29,800.00 750.29,800.00
             751.19,793.10 755.52,775.02 758.32,769.00
             761.26,762.68 769.02,752.91 774.01,748.04
             777.91,744.24 780.58,742.61 785.00,739.67
             787.92,737.72 791.88,734.90 795.00,733.31
             802.86,730.06 814.96,730.23 823.00,733.31
             827.84,734.84 832.97,738.93 837.00,742.13
             838.62,743.41 841.28,745.94 843.57,745.28
             846.07,744.56 845.99,740.08 846.28,738.00
             847.18,731.79 849.60,725.86 845.30,720.18
             842.71,716.76 838.73,715.41 835.00,713.69
             827.13,710.07 818.81,707.59 810.00,708.09
             810.00,708.09 794.00,709.53 794.00,709.53
             782.25,712.22 763.67,724.75 755.00,733.04
             755.00,733.04 741.83,747.94 741.83,747.94
             740.07,749.73 737.83,751.87 735.10,750.83
             732.77,749.94 730.64,746.05 729.31,744.00
             725.85,738.68 724.50,736.63 719.99,732.00
             708.84,720.56 705.40,719.02 691.00,713.54
             682.91,710.46 678.85,709.04 670.00,709.00
             664.00,708.97 650.73,710.15 645.00,711.50
             645.00,711.50 634.00,714.54 634.00,714.54
             634.00,714.54 609.00,716.00 609.00,716.00
             598.80,715.88 595.08,712.56 587.00,706.98
             583.17,704.33 579.35,701.56 576.33,697.99
             570.66,691.28 565.47,677.87 566.41,669.00
             566.77,665.68 568.81,662.08 570.13,659.00
             570.13,659.00 573.22,652.00 573.22,652.00
             578.65,642.88 588.79,637.27 599.00,635.46
             606.28,634.17 614.56,635.50 619.79,641.10
             621.64,643.09 623.73,646.11 623.05,648.98
             620.86,658.26 611.81,648.13 606.00,648.29
             596.37,648.55 591.11,659.64 591.00,668.00
             590.96,671.70 590.75,675.60 592.45,679.00
             598.60,691.29 617.03,694.78 629.00,690.07
             635.46,687.54 643.42,681.70 647.35,676.00
             649.72,672.57 649.90,669.82 651.04,666.00
             651.04,666.00 653.68,657.00 653.68,657.00
             655.20,647.88 652.61,634.55 647.20,627.01
             644.71,623.54 641.42,621.13 638.00,618.64
             631.68,614.06 621.83,611.31 614.00,611.45
             608.14,611.56 597.52,612.94 592.00,614.75
             578.97,619.02 563.72,630.82 557.33,643.00
             554.79,647.83 554.98,651.86 553.58,657.00
             552.49,660.98 550.23,668.09 550.13,672.00
             550.03,675.79 552.69,683.47 553.60,688.00
             555.66,698.21 555.53,701.76 561.75,711.00
             569.46,722.47 578.40,728.96 590.00,735.94
             594.86,738.86 603.45,740.75 606.11,745.10
             609.50,750.66 604.01,754.71 604.01,765.00
             604.01,776.89 613.37,795.29 623.00,802.21
             633.91,810.06 644.00,811.30 656.00,805.24
             661.63,802.40 665.53,799.35 667.36,793.00
             670.95,780.60 662.39,768.08 654.00,769.53
             649.28,770.35 645.96,776.39 642.11,775.97
             638.28,775.56 637.86,769.91 638.11,767.00
             638.57,761.50 644.75,751.11 649.09,747.80
             651.52,745.95 654.27,744.95 657.00,743.69
             660.29,742.18 663.26,740.23 667.00,740.40
             676.54,740.85 688.34,748.64 695.00,755.04
             706.12,765.72 709.75,774.20 712.42,789.00
             713.00,792.19 713.93,795.79 713.92,799.00
             713.92,799.00 709.25,825.00 709.25,825.00
             709.25,825.00 705.86,834.00 705.86,834.00
             702.21,842.85 700.19,848.87 692.96,855.91
             681.59,866.98 672.76,869.06 658.00,871.44
             658.00,871.44 648.00,872.96 648.00,872.96
             638.95,873.36 635.57,871.94 627.00,870.59
             627.00,870.59 619.00,869.48 619.00,869.48
             619.00,869.48 609.00,866.08 609.00,866.08
             583.24,857.16 563.71,844.44 546.55,823.00
             546.55,823.00 539.55,814.00 539.55,814.00
             534.19,805.73 531.56,796.16 528.30,787.00
             528.30,787.00 524.93,778.00 524.93,778.00
             524.93,778.00 523.33,769.00 523.33,769.00
             523.33,769.00 519.90,757.00 519.90,757.00
             519.90,757.00 518.09,738.00 518.09,738.00
             518.50,731.02 521.10,725.48 522.96,719.00
             522.96,719.00 529.54,691.00 529.54,691.00
             529.54,691.00 530.96,674.00 530.96,674.00
             530.96,674.00 530.18,666.00 530.18,666.00
             530.18,666.00 530.82,657.00 530.82,657.00
             530.82,657.00 529.84,646.00 529.84,646.00
             529.84,646.00 529.84,631.00 529.84,631.00
             529.84,631.00 525.16,617.00 525.16,617.00
             523.51,610.73 524.58,609.42 521.57,603.00
             521.57,603.00 515.88,589.00 515.88,589.00
             514.79,586.70 512.85,583.84 514.13,581.23
             516.37,576.65 528.47,578.05 533.00,578.00
             541.31,577.90 547.32,575.91 555.00,573.24
             555.00,573.24 565.00,570.33 565.00,570.33
             586.42,560.21 597.27,545.59 610.42,527.00
             610.42,527.00 624.08,507.00 624.08,507.00
             633.03,492.25 647.63,466.38 662.00,457.47
             670.37,452.27 671.81,453.31 680.00,450.96
             687.23,448.89 697.50,445.66 705.00,446.09
             710.72,446.43 726.48,451.55 732.00,453.87
             745.22,459.44 749.31,466.97 759.00,468.00
             756.82,460.54 751.32,454.47 745.99,449.00 Z
           M 787.00,526.00
           C 786.98,537.86 785.67,536.05 782.09,546.00
             776.59,561.26 770.50,574.20 757.00,584.24
             736.38,599.57 704.61,600.82 694.06,573.00
             691.95,567.42 691.93,564.84 692.00,559.00
             692.07,554.06 694.51,543.63 701.00,543.63
             707.98,543.63 706.93,555.55 713.10,558.98
             715.36,560.23 719.42,560.05 722.00,559.99
             725.46,559.90 734.07,559.01 737.00,557.55
             740.03,556.03 743.42,552.80 745.30,550.00
             748.13,545.77 753.17,533.16 752.66,528.00
             751.18,512.99 741.32,503.97 728.00,498.81
             722.76,496.78 718.72,495.50 713.00,496.18
             709.27,496.63 705.54,498.25 702.00,499.50
             683.99,505.81 675.60,514.91 667.69,532.00
             664.38,539.16 661.62,543.63 662.09,552.00
             662.09,552.00 663.52,571.00 663.52,571.00
             669.05,597.10 686.53,616.49 711.00,626.45
             719.32,629.84 724.76,631.89 734.00,632.00
             734.00,632.00 741.00,632.00 741.00,632.00
             764.41,631.89 786.85,614.75 796.60,594.00
             796.60,594.00 799.36,586.00 799.36,586.00
             801.91,578.44 803.89,577.62 804.08,569.00
             804.08,569.00 804.08,557.00 804.08,557.00
             804.93,549.42 807.09,545.63 805.54,537.00
             804.07,528.88 801.20,525.79 797.28,519.00
             793.95,513.23 791.63,507.37 785.00,505.00
             785.44,514.42 787.02,511.50 787.00,526.00 Z
           M 90.00,697.00
           C 90.00,711.14 87.80,716.87 96.76,729.00
             106.72,742.48 112.95,747.30 125.00,757.95
             130.28,762.62 136.04,766.16 140.21,772.00
             145.92,780.00 148.11,790.38 148.00,800.00
             147.94,804.56 144.17,822.84 142.52,827.00
             141.28,830.14 136.54,838.25 134.49,841.00
             130.71,846.05 121.02,854.05 119.70,858.01
             117.62,864.27 123.01,874.70 130.00,874.90
             137.90,875.13 145.73,866.78 150.10,861.00
             161.95,845.35 166.81,824.32 163.20,805.00
             163.20,805.00 160.22,787.00 160.22,787.00
             159.33,783.75 157.22,780.43 159.61,777.28
             162.42,773.58 167.09,774.21 171.00,775.13
             186.71,778.82 182.98,780.21 201.00,780.00
             204.44,779.96 214.96,778.91 218.00,777.90
             218.00,777.90 252.00,762.43 252.00,762.43
             257.76,760.80 274.34,757.66 280.00,758.09
             280.00,758.09 292.00,760.82 292.00,760.82
             298.84,761.65 303.81,760.71 311.00,763.47
             324.86,768.79 340.20,785.96 344.90,800.00
             346.17,803.80 345.84,806.21 346.44,810.00
             347.05,813.88 348.12,816.97 347.82,821.00
             347.07,830.90 341.77,844.82 334.91,851.96
             327.08,860.10 306.30,869.11 295.00,869.26
             284.82,869.40 269.94,862.18 264.11,853.91
             257.46,844.49 254.78,832.69 262.39,823.00
             265.01,819.67 270.24,814.62 274.94,816.50
             282.54,819.54 273.75,825.78 273.09,834.00
             271.82,849.88 282.14,852.15 295.00,852.00
             308.46,851.83 314.62,842.33 316.56,830.00
             319.16,813.51 311.47,794.06 296.00,786.49
             292.01,784.54 285.34,781.71 281.00,781.18
             267.90,779.60 247.61,787.34 238.04,796.18
             234.43,799.51 230.49,805.53 228.40,810.00
             226.72,813.58 223.58,830.92 223.58,835.00
             223.58,838.66 227.07,856.45 228.46,860.00
             236.69,881.03 249.19,889.48 270.00,895.72
             279.17,898.47 286.32,899.95 296.00,900.00
             302.97,900.03 315.59,899.22 322.00,896.91
             329.37,894.26 343.29,883.43 348.47,877.70
             355.59,869.83 362.87,853.74 363.00,843.00
             363.00,843.00 363.00,817.00 363.00,817.00
             362.89,808.28 361.05,805.71 358.06,798.00
             349.28,775.38 333.79,757.78 312.00,746.99
             308.44,745.23 293.00,740.20 289.00,739.46
             285.79,738.87 280.97,739.23 279.28,735.77
             277.50,732.14 284.06,722.94 285.86,719.00
             285.86,719.00 291.87,707.00 291.87,707.00
             293.08,703.65 292.85,701.33 293.46,698.00
             295.64,686.21 296.16,690.72 296.00,677.00
             295.91,669.25 294.42,667.82 293.28,661.00
             292.55,656.64 292.12,652.24 290.78,648.00
             290.78,648.00 286.86,639.00 286.86,639.00
             284.60,633.92 282.44,628.76 279.54,624.00
             269.28,607.14 246.98,586.54 228.00,580.10
             222.32,578.18 212.07,576.93 206.00,577.00
             202.64,577.04 187.92,579.13 185.00,580.10
             169.75,585.21 154.49,601.70 149.77,617.00
             147.57,624.14 147.92,631.61 148.00,639.00
             148.12,648.88 150.81,658.25 157.52,665.71
             173.67,683.69 205.60,686.70 220.05,665.00
             226.20,655.76 225.12,650.50 225.00,640.00
             224.93,634.85 224.17,630.20 220.61,626.14
             213.54,618.21 197.52,616.94 190.85,626.14
             188.64,629.12 186.95,634.23 187.30,638.00
             187.47,641.47 189.92,645.86 187.30,648.58
             184.62,651.56 180.70,648.38 178.99,645.90
             167.81,629.68 186.95,602.07 211.00,603.04
             221.38,603.46 236.72,610.12 246.00,614.81
             251.80,617.74 254.48,620.49 259.00,625.00
             272.00,637.96 273.97,648.38 274.24,666.00
             274.24,666.00 274.24,678.00 274.24,678.00
             273.43,694.73 274.34,687.88 269.36,703.00
             269.36,703.00 266.57,712.00 266.57,712.00
             258.82,728.04 243.71,742.43 227.00,748.88
             222.94,750.45 219.15,750.77 215.00,751.66
             209.04,752.93 206.32,753.92 200.00,754.00
             184.92,754.17 188.07,754.00 174.00,751.46
             170.72,750.87 168.26,751.05 165.00,749.87
             165.00,749.87 158.00,746.37 158.00,746.37
             136.41,735.57 121.40,719.31 110.17,698.00
             105.62,689.37 101.02,677.76 101.00,668.00
             100.99,662.07 101.67,653.28 95.00,651.00
             89.21,666.07 90.00,681.17 90.00,697.00 Z
           M 746.55,898.00
           C 746.55,898.00 743.57,908.00 743.57,908.00
             740.97,915.69 738.42,924.44 742.29,932.00
             746.02,939.26 746.74,944.40 752.46,950.96
             754.61,953.42 757.42,956.06 760.99,955.46
             765.79,954.66 768.91,948.51 768.03,944.00
             767.38,940.72 764.91,938.03 763.55,935.00
             760.85,928.96 761.09,919.13 766.22,914.39
             767.00,913.67 768.05,912.94 769.01,912.50
             779.15,907.89 774.87,922.47 775.47,924.98
             776.36,928.71 779.44,930.64 782.90,928.38
             786.12,926.27 791.28,916.69 793.30,913.00
             795.41,909.16 802.43,898.52 802.67,895.00
             802.95,891.11 800.37,887.71 797.90,885.00
             790.25,876.62 783.94,875.21 773.00,876.30
             761.77,878.50 751.28,887.64 746.55,898.00 Z
           M 609.04,943.00
           C 608.60,956.81 618.61,969.59 633.00,968.96
             644.52,968.45 650.22,959.85 649.98,949.00
             649.89,944.53 649.04,939.89 644.81,937.45
             640.85,935.17 636.70,936.01 633.60,939.21
             632.15,940.70 630.33,944.28 627.92,943.44
             624.73,942.33 624.34,936.70 625.47,934.00
             626.68,931.09 629.39,928.64 632.00,926.97
             640.72,921.36 647.34,925.23 653.82,932.09
             666.14,945.13 662.35,969.15 646.00,977.09
             633.42,983.19 619.83,977.50 609.00,970.25
             604.09,966.96 599.19,963.49 595.30,959.00
             595.30,959.00 586.48,947.00 586.48,947.00
             582.56,942.02 573.45,932.83 568.00,929.80
             558.84,924.71 547.26,923.08 537.00,925.52
             537.00,925.52 529.00,928.25 529.00,928.25
             529.00,928.25 519.00,931.35 519.00,931.35
             500.35,939.61 489.03,955.52 489.00,976.00
             489.00,976.00 489.00,1009.00 489.00,1009.00
             489.02,1019.56 490.86,1023.22 493.37,1033.00
             496.41,1044.83 499.78,1056.81 504.69,1068.00
             504.69,1068.00 512.90,1087.98 512.90,1087.98
             514.26,1090.57 516.49,1093.50 519.86,1092.34
             522.35,1091.49 522.78,1089.25 521.96,1087.00
             521.96,1087.00 513.13,1069.00 513.13,1069.00
             513.13,1069.00 511.21,1060.00 511.21,1060.00
             511.21,1060.00 507.79,1051.00 507.79,1051.00
             507.79,1051.00 505.11,1037.00 505.11,1037.00
             505.11,1037.00 501.32,1024.00 501.32,1024.00
             499.65,1013.99 499.88,1000.30 500.00,990.00
             500.10,982.01 501.62,978.19 504.72,971.00
             506.17,967.63 507.50,964.00 509.64,961.00
             517.36,950.16 530.74,943.93 544.00,944.75
             546.88,944.92 549.24,945.86 552.00,946.50
             552.00,946.50 558.00,948.00 558.00,948.00
             562.17,949.69 566.81,953.86 570.00,957.01
             576.71,963.65 577.30,965.33 580.02,974.00
             581.00,977.09 582.47,980.84 582.81,984.00
             583.57,990.92 579.52,1001.41 575.56,1006.99
             572.42,1011.39 567.36,1016.07 562.00,1017.44
             555.54,1019.09 550.43,1015.33 547.15,1010.00
             545.89,1007.96 544.48,1004.72 546.04,1002.47
             547.86,999.82 551.47,1001.22 554.00,1001.50
             557.43,1001.89 561.07,1001.15 563.57,998.58
             565.56,996.55 566.07,993.66 566.73,991.00
             570.34,976.34 557.66,963.45 543.00,964.04
             528.78,964.61 516.60,977.63 513.53,991.00
             512.87,993.88 512.97,997.99 513.00,1001.00
             513.21,1019.06 527.34,1036.42 545.00,1040.47
             548.05,1041.17 553.71,1041.04 557.00,1041.00
             572.44,1040.79 586.96,1027.07 593.63,1014.00
             595.87,1009.61 597.24,1004.71 598.66,1000.00
             601.42,990.80 598.09,983.23 603.23,979.64
             606.31,977.49 609.32,979.65 612.00,981.35
             622.89,988.25 619.34,987.39 632.00,990.12
             651.51,994.32 667.32,978.10 671.47,960.00
             672.19,956.86 672.04,950.43 672.00,947.00
             671.90,940.08 670.91,940.03 668.45,934.00
             664.46,924.18 659.71,916.78 649.00,913.11
             644.59,911.59 637.65,911.84 633.00,912.30
             618.60,915.12 609.50,928.69 609.04,943.00 Z
           M 399.59,939.00
           C 395.74,944.99 394.10,946.71 393.91,954.00
             393.91,954.00 393.91,958.00 393.91,958.00
             394.10,966.36 398.02,973.01 393.91,974.19
             390.68,975.03 382.02,968.94 379.00,967.31
             379.00,967.31 360.00,957.31 360.00,957.31
             360.00,957.31 350.00,953.91 350.00,953.91
             350.00,953.91 341.00,949.93 341.00,949.93
             341.00,949.93 331.00,947.23 331.00,947.23
             331.00,947.23 320.00,942.79 320.00,942.79
             320.00,942.79 310.00,941.11 310.00,941.11
             297.66,938.32 293.82,936.02 280.00,936.00
             280.00,936.00 237.00,936.00 237.00,936.00
             223.74,936.02 205.41,943.38 193.00,948.45
             188.59,950.25 180.37,953.60 179.79,959.00
             179.36,963.07 188.94,974.00 192.09,976.77
             198.92,982.79 205.01,979.02 212.00,976.00
             212.00,976.00 239.00,965.63 239.00,965.63
             239.00,965.63 256.00,963.25 256.00,963.25
             264.04,961.85 269.75,960.01 278.00,960.00
             296.85,959.97 300.33,961.80 318.00,964.56
             318.00,964.56 328.00,965.53 328.00,965.53
             328.00,965.53 337.00,968.65 337.00,968.65
             350.70,973.21 364.04,977.87 377.00,984.37
             377.00,984.37 390.00,992.31 390.00,992.31
             390.00,992.31 399.00,997.75 399.00,997.75
             410.64,1005.57 428.93,1021.23 438.70,1031.28
             438.70,1031.28 446.09,1040.00 446.09,1040.00
             446.09,1040.00 459.49,1055.00 459.49,1055.00
             459.49,1055.00 480.81,1083.00 480.81,1083.00
             483.31,1086.94 488.27,1094.67 493.00,1095.67
             497.66,1096.65 501.23,1093.45 498.70,1088.00
             498.70,1088.00 495.60,1083.00 495.60,1083.00
             495.60,1083.00 491.29,1075.00 491.29,1075.00
             491.29,1075.00 482.22,1062.00 482.22,1062.00
             474.65,1050.59 452.37,1022.03 443.00,1013.04
             427.18,997.86 416.85,995.76 407.57,974.00
             401.15,958.95 406.16,942.04 421.00,934.26
             424.53,932.41 427.89,930.75 432.00,931.22
             442.96,932.48 453.12,941.79 453.90,953.00
             454.34,959.32 450.82,968.18 444.00,969.63
             441.49,970.16 438.30,968.89 438.34,965.95
             438.38,962.50 443.73,959.41 444.46,955.00
             445.51,948.74 435.15,939.10 426.00,943.69
             421.10,946.15 418.94,950.08 417.06,955.00
             415.75,958.45 414.13,963.31 414.56,967.00
             415.88,978.47 427.23,989.11 439.00,988.39
             442.60,988.17 445.84,986.86 449.00,985.21
             462.52,978.19 465.16,968.07 465.00,954.00
             464.96,950.52 464.43,945.28 463.37,942.00
             458.34,926.48 441.95,916.58 426.00,918.32
             413.54,921.12 406.31,928.55 399.59,939.00 Z
           M 253.00,1011.44
           C 249.49,1011.99 240.63,1013.38 240.63,1018.05
             240.63,1022.31 247.82,1026.54 251.00,1028.67
             256.66,1032.45 270.59,1042.38 276.00,1044.52
             282.00,1046.91 289.37,1045.89 297.00,1050.56
             305.46,1055.73 308.55,1060.24 313.00,1063.35
             313.00,1063.35 329.00,1070.94 329.00,1070.94
             331.35,1071.84 338.72,1074.69 340.87,1074.36
             344.93,1073.75 343.98,1068.73 343.04,1066.00
             340.39,1058.28 335.88,1048.24 330.68,1042.00
             327.59,1038.30 316.77,1027.49 313.00,1024.79
             302.19,1017.05 278.35,1009.04 265.00,1010.28
             265.00,1010.28 253.00,1011.44 253.00,1011.44 Z
           M 538.00,1088.91
           C 544.82,1089.29 546.95,1087.11 553.00,1085.68
             557.79,1084.54 569.39,1084.01 572.52,1080.49
             574.47,1078.05 573.25,1074.77 572.52,1072.00
             571.08,1064.54 570.19,1060.75 563.96,1055.47
             557.59,1050.07 554.64,1050.76 547.00,1051.72
             544.78,1051.99 542.14,1051.93 540.17,1053.02
             537.59,1054.45 529.42,1063.20 527.94,1066.00
             526.17,1070.31 527.90,1072.96 527.94,1077.00
             527.94,1077.00 526.00,1087.00 526.00,1087.00
             529.01,1087.74 534.95,1088.74 538.00,1088.91 Z" />
</svg>
