<?xml version="1.0" encoding="UTF-8" standalone="no"?>
<!-- Created with Inkscape (http://www.inkscape.org/) -->
<svg xmlns:dc="http://purl.org/dc/elements/1.1/" xmlns:cc="http://creativecommons.org/ns#" xmlns:rdf="http://www.w3.org/1999/02/22-rdf-syntax-ns#" xmlns:svg="http://www.w3.org/2000/svg" xmlns="http://www.w3.org/2000/svg" xmlns:sodipodi="http://sodipodi.sourceforge.net/DTD/sodipodi-0.dtd" xmlns:inkscape="http://www.inkscape.org/namespaces/inkscape" width="1488.189" height="1052.3622" id="svg2" version="1.1" inkscape:version="0.48.1 r9760" sodipodi:docname="laser box example.svg">
  <sodipodi:namedview id="base" pagecolor="#ffffff" bordercolor="#666666" borderopacity="1.0" inkscape:pageopacity="0.0" inkscape:pageshadow="2" inkscape:zoom="0.35" inkscape:cx="751.33065" inkscape:cy="567.33869" inkscape:document-units="px" inkscape:current-layer="svg2" showgrid="false" inkscape:window-width="861" inkscape:window-height="693" inkscape:window-x="58" inkscape:window-y="49" inkscape:window-maximized="0"/>
  <defs id="defs4"/>
  <metadata id="metadata7">
    <rdf:RDF>
      <cc:Work rdf:about="">
        <dc:format>image/svg+xml</dc:format>
        <dc:type rdf:resource="http://purl.org/dc/dcmitype/StillImage"/>
        <dc:title/>
      </cc:Work>
    </rdf:RDF>
  </metadata>
  <g inkscape:label="Layer 1" inkscape:groupmode="layer" id="layer1" transform="translate(0, 2.98807e-05)"/>
  <g transform="translate(40, 40)" id="box" style="stroke-width: 0.0354331; stroke-miterlimit: 4; stroke-dasharray: none;">
    <path d="M0 0L0 209.409443411" id="boxe-1" style="stroke: rgb(255, 0, 0); stroke-width: 0.0354331; fill: none; stroke-miterlimit: 4; stroke-dasharray: none;"/>
    <path d="M2.12598433644 0L185.669291253 0" id="path3671" style="stroke: rgb(255, 0, 0); stroke-width: 0.0354331; fill: none; stroke-miterlimit: 4; stroke-dasharray: none;"/>
    <path d="M2.12598433644 209.409443411L185.669291253 209.409443411" id="path3673" style="stroke: rgb(255, 0, 0); stroke-width: 0.0354331; fill: none; stroke-miterlimit: 4; stroke-dasharray: none;"/>
    <path d="M615.118110318 0.0L798.661417235 0.0" id="path3675" style="stroke: rgb(255, 0, 0); stroke-width: 0.0354331; fill: none; stroke-miterlimit: 4; stroke-dasharray: none;"/>
    <path d="M615.118110318 209.409443411L798.661417235 209.409443411" id="path3677" style="stroke: rgb(255, 0, 0); stroke-width: 0.0354331; fill: none; stroke-miterlimit: 4; stroke-dasharray: none;"/>
    <path d="M187.79527559 0L612.992125982 0L612.992125982 209.409443411L187.79527559 209.409443411Z" id="path3679" style="stroke: rgb(255, 0, 0); stroke-width: 0.0354331; fill: none; stroke-miterlimit: 4; stroke-dasharray: none;"/>
    <path d="M800.787401572 0L1225.98425196 0L1225.98425196 209.409443411L800.787401572 209.409443411Z" id="path3681" style="stroke: rgb(255, 0, 0); stroke-width: 0.0354331; fill: none; stroke-miterlimit: 4; stroke-dasharray: none;"/>
    <path d="M1177.88385978 157.057082558L1177.88385978 161.309051231L1121.27953026 161.309051231L1121.27953026 157.057082558Z" id="path3683" style="stroke: rgb(0, 0, 0); stroke-width: 0.0354331; fill: none; stroke-miterlimit: 4; stroke-dasharray: none;"/>
    <path d="M-52.3523608528 52.3523608528L-52.3523608528 104.704721706" id="path3685" style="stroke: rgb(0, 0, 0); stroke-width: 0.0354331; fill: none; stroke-miterlimit: 4; stroke-dasharray: none;"/>
    <path d="M1177.88385978 52.3523608528L1177.88385978 56.6043295257L1121.27953026 56.6043295257L1121.27953026 52.3523608528Z" id="path3687" style="stroke: rgb(0, 0, 0); stroke-width: 0.0354331; fill: none; stroke-miterlimit: 4; stroke-dasharray: none;"/>
    <path d="M0 0L2.12598433644 0L2.12598433644 -187.79527559L185.669291253 -187.79527559L185.669291253 0L187.79527559 0L272.834645668 -187.79527559L527.952755903 -187.79527559L612.992125982 0L615.118110318 0L615.118110318 -187.79527559L798.661417235 -187.79527559L798.661417235 0L800.787401572 0L885.82677165 -187.79527559L1140.94488189 -187.79527559L1225.98425196 0L1409.52755888 0L1409.52755888 209.409443411L1225.98425196 209.409443411L1132.08661417 303.307081206L1132.08661417 325.842514277C1132.08661417 340.866136324 1122.69685039 350.255900104 1085.13779527 350.255900104L941.633858264 350.255900104C904.074803146 350.255900104 894.685039366 340.866136324 894.685039366 325.842514277L894.685039366 303.307081206L800.787401572 209.409443411L798.661417235 209.409443411L798.661417235 397.204719001L706.889763777 397.204719001C673.086614171 397.204719001 659.940944879 374.66928593 659.940944879 350.255900104L706.889763777 305.433065543L706.889763777 303.307081206L615.118110318 209.409443411L612.992125982 209.409443411L612.992125982 209.409443411L612.992125982 350.255900104L566.043307084 350.255900104C528.484251966 350.255900104 519.094488187 340.866136324 519.094488187 335.232278056L519.094488187 303.307081206L281.692913385 303.307081206L281.692913385 335.232278056C281.692913385 340.866136324 272.303149605 350.255900104 234.744094487 350.255900104L187.79527559 350.255900104L185.669291253 209.409443411L93.8976377949 303.307081206L93.8976377949 305.433065543L140.846456692 350.255900104C140.846456692 374.66928593 127.700787401 397.204719001 93.8976377949 397.204719001L2.12598433644 397.204719001L2.12598433644 209.409443411L0 209.409443411C-36.646652597 209.409443411 -52.3523608528 193.703735155 -52.3523608528 157.057082558L-52.3523608528 209.409443411C-92.140155101 209.409443411 -104.704721706 193.703735155 -104.704721706 157.057082558C-104.704721706 120.410429962 -92.140155101 104.704721706 -52.3523608528 104.704721706C-92.140155101 104.704721706 -104.704721706 88.9990134498 -104.704721706 52.3523608528C-104.704721706 15.7057082558 -92.140155101 0.0 -52.3523608528 0.0Z" id="path3689" style="stroke: rgb(0, 0, 0); stroke-width: 0.0354331; fill: none; stroke-miterlimit: 4; stroke-dasharray: none;"/>
    <path d="M329.527559054 -100.984251968C329.527559054 -115.157480315 343.7007874 -115.157480315 343.7007874 -100.984251968L343.7007874 -86.8110236217C343.7007874 -72.6377952753 329.527559054 -72.6377952753 329.527559054 -86.8110236217Z" id="path3691" style="stroke: rgb(0, 0, 0); stroke-width: 0.0354331; fill: none; stroke-miterlimit: 4; stroke-dasharray: none;"/>
    <path d="M457.086614171 -100.984251968C457.086614171 -115.157480315 471.259842518 -115.157480315 471.259842518 -100.984251968L471.259842518 -86.8110236217C471.259842518 -72.6377952753 457.086614171 -72.6377952753 457.086614171 -86.8110236217Z" id="path3693" style="stroke: rgb(0, 0, 0); stroke-width: 0.0354331; fill: none; stroke-miterlimit: 4; stroke-dasharray: none;"/>
    <path d="M942.519685036 -100.984251968C942.519685036 -115.157480315 956.692913382 -115.157480315 956.692913382 -100.984251968L956.692913382 -86.8110236217C956.692913382 -72.6377952753 942.519685036 -72.6377952753 942.519685036 -86.8110236217Z" id="path3695" style="stroke: rgb(0, 0, 0); stroke-width: 0.0354331; fill: none; stroke-miterlimit: 4; stroke-dasharray: none;"/>
    <path d="M1070.07874015 -100.984251968C1070.07874015 -115.157480315 1084.2519685 -115.157480315 1084.2519685 -100.984251968L1084.2519685 -86.8110236217C1084.2519685 -72.6377952753 1070.07874015 -72.6377952753 1070.07874015 -86.8110236217Z" id="path3697" style="stroke: rgb(0, 0, 0); stroke-width: 0.0354331; fill: none; stroke-miterlimit: 4; stroke-dasharray: none;"/>
  </g>
  <g transform="translate(40, 643.78)" translate="translate(-1,1)" id="innerbox" style="stroke-width: 0.0354331; stroke-miterlimit: 4; stroke-dasharray: none;">
    <path d="M0 0L0 198.779521729" id="path3700" style="stroke: rgb(255, 0, 0); stroke-width: 0.0354331; fill: none; stroke-miterlimit: 4; stroke-dasharray: none;"/>
    <path d="M2.12598433644 0L177.165353908 0" id="path3702" style="stroke: rgb(255, 0, 0); stroke-width: 0.0354331; fill: none; stroke-miterlimit: 4; stroke-dasharray: none;"/>
    <path d="M2.12598433644 198.779521729L177.165353908 198.779521729" id="path3704" style="stroke: rgb(255, 0, 0); stroke-width: 0.0354331; fill: none; stroke-miterlimit: 4; stroke-dasharray: none;"/>
    <path d="M598.110235627 0.0L773.149605198 0.0" id="path3706" style="stroke: rgb(255, 0, 0); stroke-width: 0.0354331; fill: none; stroke-miterlimit: 4; stroke-dasharray: none;"/>
    <path d="M598.110235627 198.779521729L773.149605198 198.779521729" id="path3708" style="stroke: rgb(255, 0, 0); stroke-width: 0.0354331; fill: none; stroke-miterlimit: 4; stroke-dasharray: none;"/>
    <path d="M179.291338244 0L595.98425129 0L595.98425129 198.779521729L179.291338244 198.779521729Z" id="path3710" style="stroke: rgb(255, 0, 0); stroke-width: 0.0354331; fill: none; stroke-miterlimit: 4; stroke-dasharray: none;"/>
    <path d="M775.275589534 0L1191.96850258 0L1191.96850258 198.779521729L775.275589534 198.779521729Z" id="path3712" style="stroke: rgb(255, 0, 0); stroke-width: 0.0354331; fill: none; stroke-miterlimit: 4; stroke-dasharray: none;"/>
    <path d="M1146.52559082 149.084641297L1146.52559082 153.33660997L1092.57874172 153.33660997L1092.57874172 149.084641297Z" id="path3714" style="stroke: rgb(0, 0, 0); stroke-width: 0.0354331; fill: none; stroke-miterlimit: 4; stroke-dasharray: none;"/>
    <path d="M-49.6948804323 49.6948804323L-49.6948804323 99.3897608646" id="path3716" style="stroke: rgb(0, 0, 0); stroke-width: 0.0354331; fill: none; stroke-miterlimit: 4; stroke-dasharray: none;"/>
    <path d="M1146.52559082 49.6948804323L1146.52559082 53.9468491052L1092.57874172 53.9468491052L1092.57874172 49.6948804323Z" id="path3718" style="stroke: rgb(0, 0, 0); stroke-width: 0.0354331; fill: none; stroke-miterlimit: 4; stroke-dasharray: none;"/>
    <path d="M0 0L2.12598433644 0L2.12598433644 -179.291338244L177.165353908 -179.291338244L177.165353908 0L179.291338244 0L262.629920853 -179.291338244L512.645668681 -179.291338244L595.98425129 0L598.110235627 0L598.110235627 -179.291338244L773.149605198 -179.291338244L773.149605198 0L775.275589534 0L858.614172144 -179.291338244L1108.62991997 -179.291338244L1191.96850258 0L1367.00787215 0L1367.00787215 198.779521729L1191.96850258 198.779521729L1102.32283346 288.425190851L1102.32283346 309.94015144C1102.32283346 324.2834585 1093.35826655 333.248025412 1057.4999989 333.248025412L909.744093217 333.248025412C873.885825569 333.248025412 864.921258656 324.2834585 864.921258656 309.94015144L864.921258656 288.425190851L775.275589534 198.779521729L773.149605198 198.779521729L773.149605198 378.070859973L685.629920412 378.070859973C653.357479528 378.070859973 640.807085851 356.555899384 640.807085851 333.248025412L685.629920412 290.551175188L685.629920412 288.425190851L598.110235627 198.779521729L595.98425129 198.779521729L595.98425129 198.779521729L595.98425129 333.248025412L551.161416729 333.248025412C515.30314908 333.248025412 506.338582168 324.2834585 506.338582168 318.904718353L506.338582168 288.425190851L268.937007366 288.425190851L268.937007366 318.904718353C268.937007366 324.2834585 259.972440454 333.248025412 224.114172805 333.248025412L179.291338244 333.248025412L177.165353908 198.779521729L89.645669122 288.425190851L89.645669122 290.551175188L134.468503683 333.248025412C134.468503683 356.555899384 121.918110006 378.070859973 89.645669122 378.070859973L2.12598433644 378.070859973L2.12598433644 198.779521729L0 198.779521729C-34.7864163026 198.779521729 -49.6948804323 183.871057599 -49.6948804323 149.084641297L-49.6948804323 198.779521729C-87.4629895608 198.779521729 -99.3897608646 183.871057599 -99.3897608646 149.084641297C-99.3897608646 114.298224994 -87.4629895608 99.3897608646 -49.6948804323 99.3897608646C-87.4629895608 99.3897608646 -99.3897608646 84.4812967349 -99.3897608646 49.6948804323C-99.3897608646 14.9084641297 -87.4629895608 0.0 -49.6948804323 0.0Z" id="path3720" style="stroke: rgb(0, 0, 0); stroke-width: 0.0354331; fill: none; stroke-miterlimit: 4; stroke-dasharray: none;"/>
  </g>
  <g style="font-size: 40px; font-style: normal; font-weight: normal; line-height: 125%; letter-spacing: 0px; word-spacing: 0px; fill: none; stroke: rgb(0, 0, 0); stroke-width: 0.0462894; stroke-miterlimit: 4; stroke-opacity: 1; stroke-dasharray: none; font-family: Sans;" id="text3753" transform="matrix(-0.739695, -0.19696, -0.19696, 0.739695, 704.094, 468.098)">
    <path d="m 276.65371,-354.81038 c 0.288,-12.09598 11.52,-8.64 11.52,-16.128 0,-4.03199 -3.16803,-10.656 -30.384,-10.656 -28.07998,0 -29.232,9.21601 -29.232,11.952 0,9.64799 13.67999,1.15202 12.96,17.136 -1.152,25.91998 6.91198,55.29601 -10.08,57.024 -3.456,0.288 -6.336,-1.728 -6.336,-5.328 0,-1.87199 1.008,-4.32 1.008,-6.768 0,-9.07199 -8.35201,-14.256 -16.704,-14.256 -9.64799,0 -16.128,7.92001 -16.128,17.28 0,20.59198 24.91201,27.504 41.616,27.504 8.06399,0 39.744,-2.88003 40.608,-33.408 l 1.152,-44.352" style="font-size: 144px; font-variant: normal; font-weight: 900; font-stretch: normal; fill: none; stroke: rgb(0, 0, 0); stroke-width: 0.0462894; stroke-miterlimit: 4; stroke-opacity: 1; stroke-dasharray: none; font-family: Cooper Std;" id="path3758" inkscape:connector-curvature="0"/>
    <path d="m 329.24296,-310.02638 c 4.03199,0 3.888,3.60001 3.888,6.768 0,4.32 -0.43201,10.224 -5.904,10.224 -4.176,0 -6.192,-4.032 -6.192,-7.776 0,-4.60799 3.312,-9.216 8.208,-9.216 m 34.992,-17.856 c 0,-21.59997 -22.46401,-24.768 -30.672,-24.768 -13.67999,0 -38.016,7.92002 -38.016,20.16 0,4.608 3.456,7.92 8.064,7.92 12.81598,0 13.68,-15.552 22.32,-15.552 6.62399,0 6.768,9.93601 6.768,14.688 0,5.184 -2.01601,4.896 -6.48,4.896 -25.34398,0 -35.136,12.67201 -35.136,22.896 0,14.25599 11.95201,20.592 23.904,20.592 6.62399,0 10.944,-1.872 14.112,-3.744 3.16799,-1.72799 5.04,-3.6 6.768,-3.6 3.59999,0 3.88801,7.344 15.264,7.344 10.51199,0 21.744,-8.928 21.744,-17.136 0,-7.77599 -8.64,6.04798 -8.64,-19.296 l 0,-14.4" style="font-size: 144px; font-variant: normal; font-weight: 900; font-stretch: normal; fill: none; stroke: rgb(0, 0, 0); stroke-width: 0.0462894; stroke-miterlimit: 4; stroke-opacity: 1; stroke-dasharray: none; font-family: Cooper Std;" id="path3760" inkscape:connector-curvature="0"/>
    <path d="m 384.92821,-305.99438 c 0,17.99999 -8.64,14.54401 -8.64,21.024 0,7.632 16.992,7.488 22.608,7.488 19.72798,0 23.04,-5.04 23.04,-8.784 0,-5.18399 -3.888,-4.32001 -3.888,-17.568 l 0,-11.664 c 0,-5.32799 -0.72,-15.12 7.344,-15.12 8.20799,0 7.488,12.96001 7.488,18.144 l 0,8.208 c 0.432,17.13599 -6.768,11.08801 -6.912,18.72 -0.144,4.032 1.00802,8.064 22.752,8.064 5.18399,0 22.464,-0.144 22.464,-9.072 0,-5.32799 -5.184,-2.30401 -5.184,-20.016 l 0,-8.928 c 0,-5.32799 -0.72,-15.12 7.344,-15.12 8.20799,0 7.488,12.09601 7.488,18.144 l 0,12.96 c 0,8.352 -5.04,8.20801 -5.04,13.536 0,7.488 16.704,8.496 21.456,8.496 5.61599,0 22.032,-0.432 22.032,-9.504 0,-4.17599 -5.328,-4.896 -5.328,-13.248 l 0,-30.384 c 0,-14.11198 -8.49602,-21.6 -22.176,-21.6 -7.344,0 -13.10401,3.16801 -17.424,6.336 -4.176,3.312 -6.76801,6.48 -7.92,6.48 -3.024,0 -3.16802,-12.816 -20.304,-12.816 -8.496,0 -14.25601,3.16801 -18.288,6.336 -4.032,3.312 -6.33601,6.48 -7.776,6.48 -3.024,0 -2.448,-4.896 -2.448,-6.624 0,-3.02399 -0.28801,-6.192 -3.888,-6.192 -0.288,0 -36,4.03201 -36,14.688 0,3.744 2.016,3.60001 3.888,5.184 1.43999,1.296 3.312,3.88801 3.312,13.104 l 0,13.248" style="font-size: 144px; font-variant: normal; font-weight: 900; font-stretch: normal; fill: none; stroke: rgb(0, 0, 0); stroke-width: 0.0462894; stroke-miterlimit: 4; stroke-opacity: 1; stroke-dasharray: none; font-family: Cooper Std;" id="path3762" inkscape:connector-curvature="0"/>
    <path d="m 590.08096,-312.18638 c 4.60799,0 8.928,-1.29601 8.928,-10.8 0,-10.79998 -10.80003,-29.664 -35.28,-29.664 -21.59998,0 -40.464,16.12803 -40.464,38.304 0,18.57599 13.39202,37.296 39.312,37.296 12.95998,0 33.264,-8.06401 33.264,-19.152 0,-2.73599 -2.59201,-7.2 -5.616,-7.2 -3.024,0 -8.35202,6.48 -19.152,6.48 -6.768,0 -16.128,-6.048 -16.128,-13.248 0,-2.44799 2.304,-2.016 3.888,-2.016 l 31.248,0 m -27.216,-13.824 c -3.744,0 -8.64,1.152 -8.64,-4.032 0,-4.60799 3.888,-9.504 8.64,-9.504 5.32799,0 8.496,4.03201 8.496,9.216 0,5.184 -4.60801,4.32 -8.496,4.32" style="font-size: 144px; font-variant: normal; font-weight: 900; font-stretch: normal; fill: none; stroke: rgb(0, 0, 0); stroke-width: 0.0462894; stroke-miterlimit: 4; stroke-opacity: 1; stroke-dasharray: none; font-family: Cooper Std;" id="path3764" inkscape:connector-curvature="0"/>
    <path d="m 633.94921,-352.65038 c -14.83199,0 -26.64,9.07202 -26.64,23.472 0,23.75998 28.224,24.76801 28.224,33.264 0,3.168 -2.73601,4.608 -5.616,4.608 -8.064,0 -13.82401,-14.256 -20.16,-14.256 -4.176,0 -5.472,3.02401 -5.472,6.768 0,5.472 3.6,13.68001 7.2,17.712 2.01599,2.304 3.456,2.736 6.336,2.736 1.00799,0 1.872,-0.144 2.736,-0.288 1.00799,-0.144 1.872,-0.288 2.88,-0.288 0.86399,0 4.032,0.432 7.632,0.864 3.59999,0.576 7.776,1.008 10.656,1.008 14.97598,0 28.08,-9.36001 28.08,-22.896 0,-22.31997 -31.68,-24.048 -31.68,-33.264 0,-2.73599 2.592,-4.896 5.184,-4.896 6.33599,0 10.944,11.376 19.152,11.376 3.74399,0 7.056,-2.88 7.056,-6.768 0,-5.90399 -6.62401,-19.152 -13.248,-19.152 -1.296,0 -2.59201,0.432 -3.888,0.864 -1.296,0.576 -2.44801,1.008 -3.888,1.008 -1.008,0 -3.31201,-0.432 -5.904,-1.008 -2.736,-0.432 -5.76001,-0.864 -8.64,-0.864" style="font-size: 144px; font-variant: normal; font-weight: 900; font-stretch: normal; fill: none; stroke: rgb(0, 0, 0); stroke-width: 0.0462894; stroke-miterlimit: 4; stroke-opacity: 1; stroke-dasharray: none; font-family: Cooper Std;" id="path3766" inkscape:connector-curvature="0"/>
  </g>
</svg>